
<svg version="1.0" xmlns="http://www.w3.org/2000/svg"
<g transform="translate(0.000000,736.000000) scale(0.100000,-0.100000)"
fill="#000000" stroke="none">
<path d="M2450 4674 c-148 -40 -246 -158 -286 -343 -20 -95 -20 -847 0 -942
44 -208 161 -328 349 -360 97 -16 266 -7 338 19 116 41 167 93 217 221 22 58
26 84 30 219 l4 152 -165 0 -165 0 -4 -147 c-4 -158 -12 -190 -56 -219 -34
-22 -119 -20 -152 4 -14 10 -34 36 -45 58 -19 37 -20 59 -20 524 0 465 1 487
20 525 26 53 75 78 134 70 98 -12 120 -53 128 -237 l6 -128 157 0 157 0 6 94
c10 150 -14 256 -82 357 -73 110 -179 149 -393 148 -75 0 -144 -6 -178 -15z"/>
<path d="M3376 3878 c-87 -431 -160 -791 -162 -800 -5 -17 7 -18 155 -18 89 0
161 1 162 3 0 1 15 79 32 172 l32 170 132 3 c131 3 133 2 138 -20 3 -13 14
-81 25 -153 11 -71 23 -142 26 -157 l6 -28 154 0 c116 0 154 3 154 13 1 6 -70
369 -157 805 l-158 792 -191 0 -190 0 -158 -782z m403 40 l47 -303 -94 -3
c-52 -1 -97 0 -100 3 -3 3 7 85 22 183 15 97 37 238 48 312 12 74 23 129 25
123 3 -7 26 -148 52 -315z"/>
<path d="M4200 4540 l0 -120 130 0 130 0 0 -685 0 -685 170 0 170 0 0 685 0
685 130 0 130 0 0 120 0 120 -430 0 -430 0 0 -120z"/>
</g>
</svg>
